<svg version="1.1" id="Layer_1" xmlns="http://www.w3.org/2000/svg" xmlns:xlink="http://www.w3.org/1999/xlink" x="0px" y="0px"
	 width="100%" viewBox="0 0 518 218" enable-background="new 0 0 518 218" xml:space="preserve">
<path fill="#FFFFFF" opacity="1.000000" stroke="none" 
	d="
M351.000000,219.000000 
	C234.039566,219.000000 117.579132,219.000000 1.059350,219.000000 
	C1.059350,146.397629 1.059350,73.795181 1.059350,1.096369 
	C173.543732,1.096369 346.087555,1.096369 518.815674,1.096369 
	C518.815674,73.666290 518.815674,146.333099 518.815674,219.000000 
	C463.128571,219.000000 407.314301,219.000000 351.000000,219.000000 
M195.356049,101.452591 
	C194.251038,95.944641 193.146027,90.436691 191.801682,83.735779 
	C183.514236,87.566528 176.284195,90.908508 168.864059,94.338356 
	C168.724136,91.602898 168.600876,89.192986 168.470001,86.634293 
	C162.056808,86.634293 156.148285,86.634293 150.079758,86.634293 
	C150.079758,107.450424 150.079758,128.005707 150.079758,148.669037 
	C156.469299,148.669037 162.658707,148.669037 168.948059,148.669037 
	C168.948059,137.200867 168.851700,126.067451 169.058640,114.939682 
	C169.087524,113.385719 170.237488,111.007301 171.497437,110.460960 
	C178.786942,107.300026 186.254807,104.546692 193.697617,101.749420 
	C194.347290,101.505249 195.252365,101.940659 196.379471,102.801666 
	C189.542252,122.194817 196.475861,138.778336 214.424652,145.692032 
	C225.547791,149.976547 237.097961,149.998444 249.012756,149.021439 
	C249.649017,144.434769 250.251877,140.088776 250.893997,135.459915 
	C248.253906,135.459915 246.106522,135.659851 244.008499,135.422821 
	C237.451416,134.682022 230.687912,134.552048 224.425171,132.735046 
	C216.845398,130.535950 213.154007,124.711021 213.382965,118.007637 
	C220.184952,118.007637 226.997055,118.007637 233.809158,118.007637 
	C240.734329,118.007637 247.659485,118.007637 254.540298,118.007637 
	C254.871582,108.717163 252.849258,100.728355 249.058777,95.583084 
	C238.636658,81.435875 213.511169,81.173721 201.617676,95.112556 
	C199.666245,97.399582 197.847488,99.799789 195.356049,101.452591 
M83.508080,149.087433 
	C89.831604,149.019409 96.255661,149.631882 102.453964,148.716217 
	C110.754883,147.489929 119.310692,146.115204 126.979439,142.931259 
	C137.941559,138.379959 142.007401,125.714935 136.955048,115.711716 
	C133.767014,109.399673 128.124298,106.178825 121.247520,104.502480 
	C121.751579,103.871712 121.970001,103.383560 122.345840,103.159760 
	C129.886093,98.669708 133.277267,92.029152 131.827652,83.410385 
	C130.420715,75.045296 123.919044,71.228088 116.660255,69.256073 
	C101.340164,65.094025 85.666847,67.614449 69.938599,66.988106 
	C69.938599,94.575966 69.938599,121.468674 69.938599,149.076721 
	C74.282394,149.076721 78.396805,149.076721 83.508080,149.087433 
M302.694702,149.592667 
	C306.500793,149.592667 310.306915,149.592667 314.383179,149.592667 
	C315.055298,144.451065 315.625488,140.089096 316.233643,135.436447 
	C313.716492,135.436447 311.737640,135.614792 309.801147,135.403976 
	C303.233124,134.688950 296.464600,134.605072 290.175873,132.841904 
	C282.285919,130.629807 278.609131,124.964096 278.808990,117.877525 
	C292.418060,117.877525 306.037628,117.877525 319.619965,117.877525 
	C321.886658,96.637390 308.822815,83.526047 287.261078,85.074051 
	C274.573730,85.984940 263.495361,95.144646 260.215942,107.435143 
	C256.599792,120.987633 261.426727,134.448547 272.290588,141.786469 
	C281.254456,147.841049 291.399109,149.057159 302.694702,149.592667 
M436.351105,135.378952 
	C431.699341,135.228806 427.013000,135.385040 422.403076,134.864441 
	C412.927521,133.794373 403.064514,127.344635 403.963440,118.007271 
	C410.746002,118.007271 417.558838,118.007278 424.371643,118.007278 
	C431.280334,118.007278 438.189056,118.007271 445.059052,118.007271 
	C445.696503,95.405525 434.435486,83.985283 413.217682,85.037117 
	C400.211670,85.681870 389.147583,94.583260 385.623352,107.237534 
	C381.791443,120.996796 386.472229,134.573044 397.726410,141.872345 
	C410.637970,150.246582 425.002960,149.971878 439.710358,149.047989 
	C440.310303,144.433441 440.861053,140.197479 441.469757,135.515442 
	C439.810669,135.439713 438.560425,135.382629 436.351105,135.378952 
M348.500122,148.830566 
	C359.260010,148.830566 370.019897,148.830566 380.875488,148.830566 
	C380.875488,143.890106 380.875488,139.462860 380.875488,134.609131 
	C370.641052,134.609131 360.603546,134.609131 349.976044,134.609131 
	C351.100250,132.979507 351.783173,131.884781 352.567688,130.868454 
	C360.595245,120.469009 368.725800,110.147041 376.595825,99.630020 
	C377.950287,97.819977 381.364868,96.465820 379.202301,93.001724 
	C377.137390,89.694031 375.840576,86.361732 370.500610,86.685432 
	C360.385132,87.298615 350.206940,86.878624 340.054810,86.885254 
	C335.129669,86.888474 330.204529,86.885811 325.382751,86.885811 
	C325.382751,91.837257 325.382751,96.225067 325.382751,101.202301 
	C334.532867,101.202301 343.341400,101.202301 352.794800,101.202301 
	C343.123932,113.758904 333.924713,125.553825 324.977478,137.536911 
	C324.017883,138.822083 323.815674,141.540482 324.510223,143.000168 
	C325.706421,145.514145 325.903107,149.289429 330.530945,148.964249 
	C336.162689,148.568542 341.841675,148.845779 348.500122,148.830566 
z"/>
<path fill="#3277B6" opacity="1.000000" stroke="none" 
	d="
M83.009644,149.082077 
	C78.396805,149.076721 74.282394,149.076721 69.938599,149.076721 
	C69.938599,121.468674 69.938599,94.575966 69.938599,66.988106 
	C85.666847,67.614449 101.340164,65.094025 116.660255,69.256073 
	C123.919044,71.228088 130.420715,75.045296 131.827652,83.410385 
	C133.277267,92.029152 129.886093,98.669708 122.345840,103.159760 
	C121.970001,103.383560 121.751579,103.871712 121.247520,104.502480 
	C128.124298,106.178825 133.767014,109.399673 136.955048,115.711716 
	C142.007401,125.714935 137.941559,138.379959 126.979439,142.931259 
	C119.310692,146.115204 110.754883,147.489929 102.453964,148.716217 
	C96.255661,149.631882 89.831604,149.019409 83.009644,149.082077 
M89.194977,119.491486 
	C89.294365,136.624741 89.294365,136.624725 105.933037,133.925446 
	C113.267380,132.735596 118.050270,127.858253 117.693993,121.932205 
	C117.339355,116.033386 111.985954,111.452034 104.821259,111.040428 
	C102.381729,110.900284 99.927376,111.018204 97.425133,111.018204 
	C96.842079,108.052864 96.374107,105.672813 95.866760,103.092514 
	C98.633850,102.387535 101.085777,101.986000 103.369926,101.134438 
	C108.121422,99.363037 111.298889,94.863174 110.928024,90.499794 
	C110.486229,85.301865 107.228012,82.468369 102.404816,81.418663 
	C99.499306,80.786316 96.488716,80.635117 93.524529,80.274414 
	C90.283524,79.880028 89.189896,81.285698 89.226250,84.546410 
	C89.352371,95.860725 89.222885,107.177879 89.194977,119.491486 
z"/>
<path fill="#040404" opacity="1.000000" stroke="none" 
	d="
M302.238831,149.557281 
	C291.399109,149.057159 281.254456,147.841049 272.290588,141.786469 
	C261.426727,134.448547 256.599792,120.987633 260.215942,107.435143 
	C263.495361,95.144646 274.573730,85.984940 287.261078,85.074051 
	C308.822815,83.526047 321.886658,96.637390 319.619965,117.877525 
	C306.037628,117.877525 292.418060,117.877525 278.808990,117.877525 
	C278.609131,124.964096 282.285919,130.629807 290.175873,132.841904 
	C296.464600,134.605072 303.233124,134.688950 309.801147,135.403976 
	C311.737640,135.614792 313.716492,135.436447 316.233643,135.436447 
	C315.625488,140.089096 315.055298,144.451065 314.383179,149.592667 
	C310.306915,149.592667 306.500793,149.592667 302.238831,149.557281 
M281.732025,109.154854 
	C288.394501,109.154854 295.056946,109.154854 301.858521,109.154854 
	C300.018646,100.615120 296.823547,97.238274 290.877411,96.968994 
	C285.143433,96.709320 280.484131,100.057701 278.418762,105.706680 
	C277.508698,108.195839 277.786346,109.534592 281.732025,109.154854 
z"/>
<path fill="#040404" opacity="1.000000" stroke="none" 
	d="
M195.967422,102.147690 
	C197.847488,99.799789 199.666245,97.399582 201.617676,95.112556 
	C213.511169,81.173721 238.636658,81.435875 249.058777,95.583084 
	C252.849258,100.728355 254.871582,108.717163 254.540298,118.007637 
	C247.659485,118.007637 240.734329,118.007637 233.809158,118.007637 
	C226.997055,118.007637 220.184952,118.007637 213.382965,118.007637 
	C213.154007,124.711021 216.845398,130.535950 224.425171,132.735046 
	C230.687912,134.552048 237.451416,134.682022 244.008499,135.422821 
	C246.106522,135.659851 248.253906,135.459915 250.893997,135.459915 
	C250.251877,140.088776 249.649017,144.434769 249.012756,149.021439 
	C237.097961,149.998444 225.547791,149.976547 214.424652,145.692032 
	C196.475861,138.778336 189.542252,122.194817 196.183319,102.446327 
	C195.987152,102.090988 195.967422,102.147690 195.967422,102.147690 
M213.292252,109.111351 
	C220.875107,109.111351 228.457977,109.111351 236.062653,109.111351 
	C235.380920,99.329216 227.828278,94.261887 219.883789,97.992630 
	C215.370743,100.111969 212.958527,103.900276 213.292252,109.111351 
z"/>
<path fill="#040404" opacity="1.000000" stroke="none" 
	d="
M436.830627,135.352264 
	C438.560425,135.382629 439.810669,135.439713 441.469757,135.515442 
	C440.861053,140.197479 440.310303,144.433441 439.710358,149.047989 
	C425.002960,149.971878 410.637970,150.246582 397.726410,141.872345 
	C386.472229,134.573044 381.791443,120.996796 385.623352,107.237534 
	C389.147583,94.583260 400.211670,85.681870 413.217682,85.037117 
	C434.435486,83.985283 445.696503,95.405525 445.059052,118.007271 
	C438.189056,118.007271 431.280334,118.007278 424.371643,118.007278 
	C417.558838,118.007278 410.746002,118.007271 403.963440,118.007271 
	C403.064514,127.344635 412.927521,133.794373 422.403076,134.864441 
	C427.013000,135.385040 431.699341,135.228806 436.830627,135.352264 
M426.151489,104.731514 
	C422.638977,98.156311 418.637390,95.886681 412.776031,97.145233 
	C407.616821,98.253021 403.942535,102.842506 403.364319,108.997681 
	C411.146179,108.997681 418.917297,108.997681 426.997192,108.997681 
	C426.771240,107.699646 426.581055,106.607155 426.151489,104.731514 
z"/>
<path fill="#040404" opacity="1.000000" stroke="none" 
	d="
M348.000183,148.831238 
	C341.841675,148.845779 336.162689,148.568542 330.530945,148.964249 
	C325.903107,149.289429 325.706421,145.514145 324.510223,143.000168 
	C323.815674,141.540482 324.017883,138.822083 324.977478,137.536911 
	C333.924713,125.553825 343.123932,113.758904 352.794800,101.202301 
	C343.341400,101.202301 334.532867,101.202301 325.382751,101.202301 
	C325.382751,96.225067 325.382751,91.837257 325.382751,86.885811 
	C330.204529,86.885811 335.129669,86.888474 340.054810,86.885254 
	C350.206940,86.878624 360.385132,87.298615 370.500610,86.685432 
	C375.840576,86.361732 377.137390,89.694031 379.202301,93.001724 
	C381.364868,96.465820 377.950287,97.819977 376.595825,99.630020 
	C368.725800,110.147041 360.595245,120.469009 352.567688,130.868454 
	C351.783173,131.884781 351.100250,132.979507 349.976044,134.609131 
	C360.603546,134.609131 370.641052,134.609131 380.875488,134.609131 
	C380.875488,139.462860 380.875488,143.890106 380.875488,148.830566 
	C370.019897,148.830566 359.260010,148.830566 348.000183,148.831238 
z"/>
<path fill="#040404" opacity="1.000000" stroke="none" 
	d="
M196.012985,102.075699 
	C195.252365,101.940659 194.347290,101.505249 193.697617,101.749420 
	C186.254807,104.546692 178.786942,107.300026 171.497437,110.460960 
	C170.237488,111.007301 169.087524,113.385719 169.058640,114.939682 
	C168.851700,126.067451 168.948059,137.200867 168.948059,148.669037 
	C162.658707,148.669037 156.469299,148.669037 150.079758,148.669037 
	C150.079758,128.005707 150.079758,107.450424 150.079758,86.634293 
	C156.148285,86.634293 162.056808,86.634293 168.470001,86.634293 
	C168.600876,89.192986 168.724136,91.602898 168.864059,94.338356 
	C176.284195,90.908508 183.514236,87.566528 191.801682,83.735779 
	C193.146027,90.436691 194.251038,95.944641 195.661743,101.800140 
	C195.967422,102.147690 195.987152,102.090988 196.012985,102.075699 
z"/>
<path fill="#F8FBFD" opacity="1.000000" stroke="none" 
	d="
M89.192810,118.992722 
	C89.222885,107.177879 89.352371,95.860725 89.226250,84.546410 
	C89.189896,81.285698 90.283524,79.880028 93.524529,80.274414 
	C96.488716,80.635117 99.499306,80.786316 102.404816,81.418663 
	C107.228012,82.468369 110.486229,85.301865 110.928024,90.499794 
	C111.298889,94.863174 108.121422,99.363037 103.369926,101.134438 
	C101.085777,101.986000 98.633850,102.387535 95.866760,103.092514 
	C96.374107,105.672813 96.842079,108.052864 97.425133,111.018204 
	C99.927376,111.018204 102.381729,110.900284 104.821259,111.040428 
	C111.985954,111.452034 117.339355,116.033386 117.693993,121.932205 
	C118.050270,127.858253 113.267380,132.735596 105.933037,133.925446 
	C89.294365,136.624725 89.294365,136.624741 89.192810,118.992722 
z"/>
<path fill="#FBFBFB" opacity="1.000000" stroke="none" 
	d="
M281.266052,109.154694 
	C277.786346,109.534592 277.508698,108.195839 278.418762,105.706680 
	C280.484131,100.057701 285.143433,96.709320 290.877411,96.968994 
	C296.823547,97.238274 300.018646,100.615120 301.858521,109.154854 
	C295.056946,109.154854 288.394501,109.154854 281.266052,109.154694 
z"/>
<path fill="#FAFAFA" opacity="1.000000" stroke="none" 
	d="
M212.887054,108.997849 
	C212.958527,103.900276 215.370743,100.111969 219.883789,97.992630 
	C227.828278,94.261887 235.380920,99.329216 236.062653,109.111351 
	C228.457977,109.111351 220.875107,109.111351 212.887054,108.997849 
z"/>
<path fill="#FAFAFA" opacity="1.000000" stroke="none" 
	d="
M426.271179,105.123093 
	C426.581055,106.607155 426.771240,107.699646 426.997192,108.997681 
	C418.917297,108.997681 411.146179,108.997681 403.364319,108.997681 
	C403.942535,102.842506 407.616821,98.253021 412.776031,97.145233 
	C418.637390,95.886681 422.638977,98.156311 426.271179,105.123093 
z"/>
</svg>